<svg xmlns="http://www.w3.org/2000/svg" viewBox="0 0 500 500">
  <defs fill="#000000">
    <clipPath id="a" fill="#000000">
      <path d="M12.542969 153.109375h69V222h-69Zm0 0" fill="#000000"/>
    </clipPath>
  </defs>
  <ellipse style="fill:#ffffff;" cx="250" cy="249.508" rx="249.897" ry="249.897"/>
  <g clip-path="url(#a)" transform="matrix(4.397583, 0, 0, 4.397583, 59.38438, -572.566956)" style="">
    <path fill="#3881d5" d="M46.929688 153.109375H12.542969v3.441406c0 13.59375 7.929687 25.371094 19.40625 30.949219-11.476563 5.578125-19.40625 17.351562-19.40625 30.945312v3.441407h34.386719c18.960937 0 34.390624-15.425781 34.390624-34.386719 0-18.964844-15.425781-34.390625-34.390624-34.390625Zm-27.292969 6.878906h27.296875c14.003906 0 25.597656 10.519531 27.296875 24.070313H46.929688c-14 0-25.597657-10.519532-27.292969-24.070313Zm27.292969 55.023438H19.636719c1.699219-13.554688 13.292969-24.074219 27.296875-24.074219h27.296875c-1.699219 13.554688-13.292969 24.074219-27.300781 24.074219Zm0 0" class="text-svg"/>
  </g>
</svg>